<svg xmlns="http://www.w3.org/2000/svg" xmlns:xlink="http://www.w3.org/1999/xlink" width="500" zoomAndPan="magnify" viewBox="0 0 375 374.999991" height="500" preserveAspectRatio="xMidYMid meet" version="1.0"><defs><clipPath id="6431dff079"><path d="M 86.386719 89.542969 L 273.886719 89.542969 L 273.886719 277.042969 L 86.386719 277.042969 Z M 86.386719 89.542969 " clip-rule="nonzero"/></clipPath><clipPath id="6608c5dfaf"><path d="M 180.136719 89.542969 C 183.207031 89.542969 186.269531 89.691406 189.324219 89.992188 C 192.382812 90.292969 195.414062 90.746094 198.425781 91.34375 C 201.4375 91.941406 204.414062 92.6875 207.351562 93.578125 C 210.289062 94.46875 213.175781 95.503906 216.011719 96.679688 C 218.851562 97.855469 221.621094 99.164062 224.332031 100.613281 C 227.039062 102.058594 229.667969 103.636719 232.222656 105.34375 C 234.773438 107.046875 237.238281 108.875 239.609375 110.824219 C 241.984375 112.769531 244.257812 114.828125 246.429688 117 C 248.597656 119.171875 250.660156 121.445312 252.605469 123.816406 C 254.554688 126.191406 256.382812 128.65625 258.085938 131.207031 C 259.792969 133.761719 261.371094 136.390625 262.816406 139.097656 C 264.265625 141.808594 265.574219 144.578125 266.75 147.414062 C 267.925781 150.253906 268.957031 153.140625 269.851562 156.078125 C 270.742188 159.015625 271.488281 161.992188 272.085938 165.003906 C 272.683594 168.015625 273.132812 171.046875 273.433594 174.101562 C 273.734375 177.160156 273.886719 180.222656 273.886719 183.292969 C 273.886719 186.363281 273.734375 189.425781 273.433594 192.480469 C 273.132812 195.539062 272.683594 198.570312 272.085938 201.582031 C 271.488281 204.59375 270.742188 207.570312 269.851562 210.507812 C 268.957031 213.445312 267.925781 216.332031 266.75 219.167969 C 265.574219 222.003906 264.265625 224.777344 262.816406 227.484375 C 261.371094 230.195312 259.792969 232.824219 258.085938 235.378906 C 256.382812 237.929688 254.554688 240.394531 252.605469 242.765625 C 250.660156 245.140625 248.597656 247.414062 246.429688 249.582031 C 244.257812 251.753906 241.984375 253.8125 239.609375 255.761719 C 237.238281 257.710938 234.773438 259.535156 232.222656 261.242188 C 229.667969 262.949219 227.039062 264.523438 224.332031 265.972656 C 221.621094 267.421875 218.851562 268.730469 216.011719 269.90625 C 213.175781 271.082031 210.289062 272.113281 207.351562 273.003906 C 204.414062 273.898438 201.4375 274.640625 198.425781 275.242188 C 195.414062 275.839844 192.382812 276.289062 189.324219 276.589844 C 186.269531 276.890625 183.207031 277.042969 180.136719 277.042969 C 177.066406 277.042969 174.003906 276.890625 170.949219 276.589844 C 167.890625 276.289062 164.859375 275.839844 161.847656 275.242188 C 158.835938 274.640625 155.859375 273.898438 152.921875 273.003906 C 149.984375 272.113281 147.097656 271.082031 144.261719 269.90625 C 141.421875 268.730469 138.652344 267.421875 135.941406 265.972656 C 133.234375 264.523438 130.605469 262.949219 128.050781 261.242188 C 125.5 259.535156 123.035156 257.710938 120.664062 255.761719 C 118.289062 253.8125 116.015625 251.753906 113.84375 249.582031 C 111.675781 247.414062 109.613281 245.140625 107.667969 242.765625 C 105.71875 240.394531 103.890625 237.929688 102.1875 235.378906 C 100.480469 232.824219 98.902344 230.195312 97.457031 227.484375 C 96.007812 224.777344 94.699219 222.003906 93.523438 219.167969 C 92.347656 216.332031 91.316406 213.445312 90.421875 210.507812 C 89.53125 207.570312 88.789062 204.59375 88.1875 201.582031 C 87.589844 198.570312 87.140625 195.539062 86.839844 192.480469 C 86.539062 189.425781 86.386719 186.363281 86.386719 183.292969 C 86.386719 180.222656 86.539062 177.160156 86.839844 174.101562 C 87.140625 171.046875 87.589844 168.015625 88.1875 165.003906 C 88.789062 161.992188 89.53125 159.015625 90.421875 156.078125 C 91.316406 153.140625 92.347656 150.253906 93.523438 147.414062 C 94.699219 144.578125 96.007812 141.808594 97.457031 139.097656 C 98.902344 136.390625 100.480469 133.761719 102.1875 131.207031 C 103.890625 128.65625 105.71875 126.191406 107.667969 123.816406 C 109.613281 121.445312 111.675781 119.171875 113.84375 117 C 116.015625 114.828125 118.289062 112.769531 120.664062 110.824219 C 123.035156 108.875 125.5 107.046875 128.050781 105.34375 C 130.605469 103.636719 133.234375 102.058594 135.941406 100.613281 C 138.652344 99.164062 141.421875 97.855469 144.261719 96.679688 C 147.097656 95.503906 149.984375 94.46875 152.921875 93.578125 C 155.859375 92.6875 158.835938 91.941406 161.847656 91.34375 C 164.859375 90.746094 167.890625 90.292969 170.949219 89.992188 C 174.003906 89.691406 177.066406 89.542969 180.136719 89.542969 L 180.136719 127.042969 C 176.441406 127.042969 172.785156 127.402344 169.164062 128.125 C 165.539062 128.84375 162.023438 129.910156 158.609375 131.324219 C 155.199219 132.738281 151.957031 134.46875 148.886719 136.523438 C 145.816406 138.574219 142.972656 140.90625 140.363281 143.519531 C 137.75 146.128906 135.417969 148.96875 133.367188 152.042969 C 131.316406 155.113281 129.582031 158.355469 128.167969 161.765625 C 126.753906 165.179688 125.6875 168.695312 124.96875 172.320312 C 124.246094 175.941406 123.886719 179.597656 123.886719 183.292969 C 123.886719 186.984375 124.246094 190.644531 124.96875 194.265625 C 125.6875 197.890625 126.753906 201.40625 128.167969 204.816406 C 129.582031 208.230469 131.316406 211.472656 133.367188 214.542969 C 135.417969 217.613281 137.75 220.457031 140.363281 223.066406 C 142.972656 225.679688 145.816406 228.011719 148.886719 230.0625 C 151.957031 232.113281 155.199219 233.847656 158.609375 235.261719 C 162.023438 236.675781 165.539062 237.742188 169.164062 238.460938 C 172.785156 239.183594 176.441406 239.542969 180.136719 239.542969 C 183.832031 239.542969 187.488281 239.183594 191.109375 238.460938 C 194.734375 237.742188 198.25 236.675781 201.664062 235.261719 C 205.074219 233.847656 208.316406 232.113281 211.386719 230.0625 C 214.457031 228.011719 217.300781 225.679688 219.910156 223.066406 C 222.523438 220.457031 224.855469 217.613281 226.90625 214.542969 C 228.957031 211.472656 230.691406 208.230469 232.105469 204.816406 C 233.519531 201.40625 234.585938 197.890625 235.304688 194.265625 C 236.027344 190.644531 236.386719 186.984375 236.386719 183.292969 C 236.386719 179.597656 236.027344 175.941406 235.304688 172.320312 C 234.585938 168.695312 233.519531 165.179688 232.105469 161.765625 C 230.691406 158.355469 228.957031 155.113281 226.90625 152.042969 C 224.855469 148.96875 222.523438 146.128906 219.910156 143.519531 C 217.300781 140.90625 214.457031 138.574219 211.386719 136.523438 C 208.316406 134.46875 205.074219 132.738281 201.664062 131.324219 C 198.25 129.910156 194.734375 128.84375 191.109375 128.125 C 187.488281 127.402344 183.832031 127.042969 180.136719 127.042969 Z M 180.136719 89.542969 " clip-rule="nonzero"/></clipPath><clipPath id="9c4be59f7c"><path d="M 180 91 L 273.886719 91 L 273.886719 275 L 180 275 Z M 180 91 " clip-rule="nonzero"/></clipPath><clipPath id="3164d6842a"><path d="M 203.574219 92.519531 C 208.570312 93.808594 213.429688 95.5 218.144531 97.59375 C 222.863281 99.683594 227.375 102.148438 231.6875 104.988281 C 235.996094 107.824219 240.046875 110.996094 243.832031 114.503906 C 247.617188 118.007812 251.09375 121.800781 254.253906 125.882812 C 257.414062 129.960938 260.21875 134.273438 262.664062 138.816406 C 265.113281 143.359375 267.171875 148.070312 268.84375 152.957031 C 270.511719 157.839844 271.769531 162.824219 272.617188 167.914062 C 273.464844 173.007812 273.886719 178.132812 273.886719 183.292969 C 273.886719 188.453125 273.464844 193.578125 272.617188 198.667969 C 271.769531 203.761719 270.511719 208.746094 268.84375 213.628906 C 267.171875 218.511719 265.113281 223.226562 262.664062 227.769531 C 260.21875 232.3125 257.414062 236.621094 254.253906 240.703125 C 251.09375 244.78125 247.617188 248.574219 243.832031 252.082031 C 240.046875 255.585938 235.996094 258.757812 231.6875 261.597656 C 227.375 264.433594 222.863281 266.898438 218.144531 268.992188 C 213.429688 271.085938 208.570312 272.773438 203.574219 274.066406 C 202.382812 274.375 201.171875 274.5625 199.941406 274.632812 C 198.710938 274.703125 197.488281 274.652344 196.269531 274.480469 C 195.046875 274.308594 193.855469 274.019531 192.695312 273.613281 C 191.53125 273.207031 190.421875 272.691406 189.359375 272.066406 C 188.296875 271.441406 187.308594 270.71875 186.390625 269.898438 C 185.472656 269.078125 184.640625 268.175781 183.898438 267.191406 C 183.160156 266.210938 182.523438 265.164062 181.988281 264.054688 C 181.453125 262.945312 181.03125 261.792969 180.722656 260.601562 C 180.414062 259.410156 180.226562 258.195312 180.15625 256.96875 C 180.089844 255.738281 180.140625 254.511719 180.3125 253.292969 C 180.484375 252.074219 180.773438 250.882812 181.179688 249.722656 C 181.585938 248.558594 182.101562 247.445312 182.726562 246.386719 C 183.355469 245.324219 184.078125 244.335938 184.898438 243.417969 C 185.71875 242.5 186.621094 241.671875 187.605469 240.929688 C 188.589844 240.191406 189.636719 239.550781 190.746094 239.019531 C 191.855469 238.484375 193.007812 238.0625 194.199219 237.757812 C 197.195312 236.980469 200.113281 235.96875 202.941406 234.710938 C 205.773438 233.457031 208.480469 231.976562 211.066406 230.273438 C 213.652344 228.574219 216.082031 226.667969 218.355469 224.566406 C 220.625 222.460938 222.710938 220.1875 224.605469 217.738281 C 226.503906 215.289062 228.183594 212.703125 229.652344 209.976562 C 231.121094 207.253906 232.359375 204.425781 233.359375 201.496094 C 234.363281 198.566406 235.117188 195.574219 235.625 192.519531 C 236.132812 189.464844 236.386719 186.390625 236.386719 183.292969 C 236.386719 180.195312 236.132812 177.121094 235.625 174.066406 C 235.117188 171.011719 234.363281 168.019531 233.359375 165.089844 C 232.359375 162.160156 231.121094 159.332031 229.652344 156.605469 C 228.183594 153.882812 226.503906 151.292969 224.605469 148.847656 C 222.710938 146.398438 220.625 144.121094 218.355469 142.019531 C 216.082031 139.914062 213.652344 138.011719 211.066406 136.308594 C 208.480469 134.605469 205.773438 133.128906 202.941406 131.871094 C 200.113281 130.617188 197.195312 129.601562 194.199219 128.828125 C 193.007812 128.519531 191.855469 128.101562 190.746094 127.566406 C 189.636719 127.03125 188.59375 126.394531 187.609375 125.652344 C 186.625 124.914062 185.722656 124.082031 184.902344 123.164062 C 184.082031 122.246094 183.359375 121.257812 182.734375 120.195312 C 182.109375 119.136719 181.59375 118.023438 181.1875 116.863281 C 180.78125 115.699219 180.492188 114.511719 180.320312 113.289062 C 180.148438 112.070312 180.097656 110.847656 180.167969 109.617188 C 180.234375 108.390625 180.425781 107.179688 180.730469 105.988281 C 181.039062 104.792969 181.460938 103.644531 181.996094 102.535156 C 182.53125 101.425781 183.167969 100.378906 183.90625 99.394531 C 184.648438 98.414062 185.476562 97.511719 186.394531 96.691406 C 187.3125 95.871094 188.304688 95.148438 189.363281 94.523438 C 190.425781 93.898438 191.535156 93.382812 192.699219 92.976562 C 193.859375 92.570312 195.050781 92.28125 196.269531 92.109375 C 197.488281 91.9375 198.714844 91.882812 199.941406 91.953125 C 201.171875 92.023438 202.382812 92.210938 203.574219 92.519531 Z M 203.574219 92.519531 " clip-rule="nonzero"/></clipPath><clipPath id="11ba0a7381"><path d="M 128 145 L 232 145 L 232 231.914062 L 128 231.914062 Z M 128 145 " clip-rule="nonzero"/></clipPath></defs><g clip-path="url(#6431dff079)"><g clip-path="url(#6608c5dfaf)"><path fill="#5944e7" d="M 86.386719 89.542969 L 273.886719 89.542969 L 273.886719 277.042969 L 86.386719 277.042969 Z M 86.386719 89.542969 " fill-opacity="1" fill-rule="nonzero"/></g></g><g clip-path="url(#9c4be59f7c)"><g clip-path="url(#3164d6842a)"><path fill="#6ce5e8" d="M 86.386719 89.542969 L 273.886719 89.542969 L 273.886719 277.042969 L 86.386719 277.042969 Z M 86.386719 89.542969 " fill-opacity="1" fill-rule="nonzero"/></g></g><g clip-path="url(#11ba0a7381)"><path fill="#13508b" d="M 231.539062 180.929688 C 230.996094 184.363281 229.957031 187.636719 228.421875 190.753906 C 227.050781 193.589844 225.261719 196.132812 223.042969 198.371094 C 221.480469 200.042969 219.785156 201.585938 218.261719 203.296875 C 217.988281 203.800781 217.675781 204.28125 217.316406 204.734375 C 216.949219 205.167969 216.539062 205.5625 216.089844 205.914062 C 215.945312 206.042969 215.792969 206.144531 215.636719 206.261719 C 215.589844 206.292969 215.546875 206.328125 215.507812 206.367188 C 215.429688 206.417969 215.351562 206.445312 215.273438 206.496094 C 215.195312 206.546875 215.132812 206.585938 215.054688 206.625 C 214.601562 206.898438 214.128906 207.128906 213.632812 207.3125 C 213.554688 207.351562 213.476562 207.390625 213.414062 207.414062 C 212.59375 207.691406 211.753906 207.875 210.890625 207.960938 C 210.839844 208.070312 210.800781 208.1875 210.777344 208.308594 C 210.105469 213 208.152344 214.984375 203.5625 215.761719 C 203.15625 215.925781 202.910156 216.222656 202.824219 216.652344 C 202.796875 217.28125 202.683594 217.894531 202.492188 218.492188 C 202.296875 219.089844 202.03125 219.652344 201.6875 220.179688 C 201.347656 220.707031 200.941406 221.179688 200.476562 221.601562 C 200.007812 222.019531 199.496094 222.371094 198.933594 222.652344 C 197.632812 223.203125 196.296875 223.644531 194.925781 223.976562 C 194.886719 224.261719 194.835938 224.726562 194.757812 225.191406 C 194.636719 226.023438 194.386719 226.8125 194.003906 227.558594 C 193.617188 228.304688 193.125 228.964844 192.515625 229.542969 C 191.910156 230.125 191.226562 230.585938 190.464844 230.9375 C 189.707031 231.285156 188.90625 231.5 188.074219 231.582031 C 186.953125 231.726562 185.863281 231.613281 184.792969 231.242188 C 183.726562 230.871094 182.800781 230.28125 182.011719 229.46875 C 180.730469 228.199219 179.582031 226.785156 178.210938 225.257812 C 177.023438 226.527344 176.207031 227.5 175.300781 228.378906 C 174.792969 228.917969 174.21875 229.371094 173.574219 229.734375 C 172.929688 230.097656 172.242188 230.359375 171.519531 230.515625 C 170.796875 230.671875 170.066406 230.71875 169.332031 230.65625 C 168.59375 230.59375 167.882812 230.421875 167.195312 230.144531 C 166.542969 229.925781 165.933594 229.621094 165.367188 229.222656 C 164.800781 228.824219 164.308594 228.355469 163.882812 227.808594 C 163.457031 227.265625 163.117188 226.671875 162.867188 226.027344 C 162.617188 225.382812 162.464844 224.714844 162.414062 224.027344 C 162.296875 223.015625 161.972656 222.71875 161.015625 222.613281 C 160.183594 222.53125 159.386719 222.3125 158.628906 221.957031 C 157.871094 221.601562 157.195312 221.128906 156.601562 220.539062 C 156.003906 219.949219 155.523438 219.277344 155.160156 218.519531 C 154.796875 217.765625 154.566406 216.96875 154.476562 216.136719 C 154.425781 215.707031 154.359375 215.292969 154.292969 214.90625 C 149.355469 214.464844 146.769531 211.78125 146.355469 207.015625 C 146.222656 206.964844 146.085938 206.933594 145.945312 206.921875 C 145.503906 206.914062 145.066406 206.863281 144.632812 206.777344 C 144.199219 206.691406 143.777344 206.570312 143.367188 206.40625 C 142.957031 206.246094 142.5625 206.054688 142.183594 205.824219 C 141.804688 205.59375 141.453125 205.332031 141.121094 205.042969 C 140.789062 204.75 140.484375 204.433594 140.207031 204.085938 C 139.929688 203.742188 139.6875 203.375 139.472656 202.988281 C 139.261719 202.601562 139.085938 202.199219 138.941406 201.78125 C 138.800781 201.359375 138.695312 200.933594 138.625 200.496094 C 138.488281 200.085938 138.261719 199.738281 137.941406 199.445312 C 135.300781 196.839844 133.144531 193.882812 131.464844 190.570312 C 129.875 187.304688 128.832031 183.871094 128.335938 180.269531 C 128.140625 177.546875 127.535156 165.667969 135.835938 156.296875 C 139.203125 152.640625 143.191406 149.886719 147.804688 148.042969 C 159.453125 143.367188 170.285156 145.617188 179.96875 153.421875 C 180.03125 153.40625 180.089844 153.382812 180.148438 153.355469 C 180.28125 153.269531 180.40625 153.175781 180.523438 153.070312 C 182.414062 151.453125 184.46875 150.089844 186.691406 148.976562 C 188.914062 147.859375 191.238281 147.03125 193.660156 146.484375 C 196.085938 145.9375 198.539062 145.691406 201.023438 145.746094 C 203.507812 145.796875 205.945312 146.148438 208.34375 146.800781 C 210.777344 147.386719 213.089844 148.277344 215.289062 149.46875 C 217.6875 150.804688 219.875 152.433594 221.84375 154.351562 C 223.8125 156.269531 225.496094 158.414062 226.898438 160.78125 C 227.296875 161.441406 232.984375 171.042969 231.539062 180.929688 Z M 231.539062 180.929688 " fill-opacity="1" fill-rule="nonzero"/><path fill="#13508b" d="M 226.898438 160.777344 C 225.496094 158.410156 223.8125 156.269531 221.84375 154.347656 C 219.875 152.429688 217.6875 150.804688 215.289062 149.46875 C 213.089844 148.273438 210.777344 147.386719 208.34375 146.800781 C 205.945312 146.148438 203.507812 145.796875 201.023438 145.746094 C 198.539062 145.691406 196.085938 145.9375 193.660156 146.484375 C 191.238281 147.03125 188.914062 147.859375 186.691406 148.976562 C 184.46875 150.089844 182.414062 151.453125 180.523438 153.070312 C 180.40625 153.175781 180.28125 153.269531 180.148438 153.355469 C 180.089844 153.382812 180.03125 153.40625 179.96875 153.421875 C 170.285156 145.617188 159.453125 143.367188 147.804688 148.042969 C 143.191406 149.886719 139.203125 152.640625 135.835938 156.296875 C 127.535156 165.667969 128.140625 177.546875 128.335938 180.269531 C 128.832031 183.871094 129.875 187.304688 131.464844 190.570312 C 133.144531 193.882812 135.300781 196.839844 137.941406 199.445312 C 138.261719 199.738281 138.488281 200.085938 138.625 200.496094 C 138.695312 200.933594 138.800781 201.359375 138.941406 201.78125 C 139.085938 202.199219 139.261719 202.601562 139.472656 202.988281 C 139.6875 203.375 139.929688 203.742188 140.207031 204.085938 C 140.484375 204.433594 140.789062 204.75 141.121094 205.042969 C 141.453125 205.332031 141.804688 205.59375 142.183594 205.824219 C 142.5625 206.054688 142.957031 206.246094 143.367188 206.40625 C 143.777344 206.570312 144.199219 206.691406 144.632812 206.777344 C 145.066406 206.863281 145.503906 206.914062 145.945312 206.921875 C 146.085938 206.933594 146.222656 206.964844 146.355469 207.015625 C 146.769531 211.78125 149.355469 214.464844 154.292969 214.90625 C 154.359375 215.292969 154.425781 215.707031 154.476562 216.136719 C 154.566406 216.96875 154.796875 217.765625 155.160156 218.519531 C 155.523438 219.277344 156.003906 219.949219 156.601562 220.539062 C 157.195312 221.128906 157.871094 221.601562 158.628906 221.957031 C 159.386719 222.3125 160.183594 222.53125 161.015625 222.613281 C 161.972656 222.71875 162.296875 223.015625 162.414062 224.027344 C 162.464844 224.714844 162.617188 225.382812 162.867188 226.027344 C 163.117188 226.671875 163.457031 227.265625 163.882812 227.808594 C 164.308594 228.355469 164.800781 228.824219 165.367188 229.222656 C 165.933594 229.621094 166.542969 229.925781 167.195312 230.144531 C 167.882812 230.421875 168.59375 230.59375 169.332031 230.65625 C 170.066406 230.71875 170.796875 230.671875 171.519531 230.515625 C 172.242188 230.359375 172.925781 230.097656 173.574219 229.734375 C 174.21875 229.371094 174.792969 228.917969 175.300781 228.378906 C 176.207031 227.5 177.023438 226.527344 178.210938 225.257812 C 179.582031 226.785156 180.730469 228.199219 182.011719 229.46875 C 182.800781 230.28125 183.726562 230.871094 184.792969 231.242188 C 185.863281 231.613281 186.953125 231.726562 188.074219 231.582031 C 188.90625 231.5 189.707031 231.285156 190.464844 230.9375 C 191.226562 230.585938 191.910156 230.125 192.515625 229.542969 C 193.125 228.964844 193.617188 228.304688 194.003906 227.558594 C 194.386719 226.8125 194.636719 226.023438 194.757812 225.191406 C 194.835938 224.726562 194.886719 224.261719 194.925781 223.976562 C 196.296875 223.644531 197.632812 223.203125 198.933594 222.652344 C 199.496094 222.371094 200.007812 222.019531 200.476562 221.601562 C 200.941406 221.179688 201.347656 220.707031 201.6875 220.179688 C 202.03125 219.652344 202.296875 219.089844 202.492188 218.492188 C 202.683594 217.894531 202.796875 217.28125 202.824219 216.652344 C 202.910156 216.222656 203.15625 215.925781 203.5625 215.761719 C 208.152344 214.984375 210.105469 213 210.777344 208.308594 C 210.800781 208.1875 210.839844 208.070312 210.890625 207.960938 C 211.753906 207.875 212.59375 207.691406 213.414062 207.414062 C 213.476562 207.390625 213.554688 207.351562 213.632812 207.3125 C 214.128906 207.128906 214.601562 206.898438 215.054688 206.625 C 215.132812 206.585938 215.210938 206.535156 215.273438 206.496094 C 215.339844 206.457031 215.429688 206.417969 215.507812 206.367188 C 215.546875 206.328125 215.589844 206.292969 215.636719 206.261719 C 215.792969 206.144531 215.945312 206.042969 216.089844 205.914062 C 216.539062 205.5625 216.949219 205.167969 217.316406 204.734375 C 217.675781 204.28125 217.988281 203.800781 218.261719 203.296875 C 219.785156 201.585938 221.480469 200.042969 223.042969 198.371094 C 225.261719 196.132812 227.050781 193.589844 228.421875 190.753906 C 229.957031 187.636719 230.996094 184.363281 231.539062 180.929688 C 232.984375 171.042969 227.296875 161.441406 226.898438 160.777344 Z M 148.476562 202 C 148.144531 202.304688 147.765625 202.535156 147.34375 202.695312 C 146.921875 202.851562 146.488281 202.925781 146.035156 202.917969 C 145.585938 202.90625 145.152344 202.8125 144.738281 202.632812 C 144.324219 202.453125 143.960938 202.203125 143.640625 201.882812 C 143.300781 201.570312 143.035156 201.203125 142.84375 200.78125 C 142.652344 200.359375 142.550781 199.917969 142.539062 199.457031 C 142.523438 198.996094 142.601562 198.546875 142.769531 198.117188 C 142.933594 197.6875 143.179688 197.304688 143.5 196.972656 C 144.6875 195.644531 145.945312 194.386719 147.273438 193.199219 C 147.949219 192.75 148.667969 192.394531 149.433594 192.125 C 150.171875 192.148438 150.847656 192.363281 151.464844 192.769531 C 152.078125 193.175781 152.546875 193.710938 152.859375 194.378906 C 153.019531 194.679688 153.128906 194.996094 153.191406 195.332031 C 153.25 195.667969 153.253906 196.003906 153.207031 196.339844 C 153.160156 196.675781 153.0625 196.996094 152.910156 197.300781 C 152.761719 197.609375 152.566406 197.882812 152.328125 198.125 C 151.101562 199.472656 149.820312 200.78125 148.476562 202 Z M 156.363281 209.929688 C 156.109375 210.171875 155.824219 210.367188 155.507812 210.515625 C 155.191406 210.667969 154.859375 210.765625 154.511719 210.808594 C 154.164062 210.855469 153.820312 210.84375 153.476562 210.78125 C 153.132812 210.71875 152.804688 210.601562 152.496094 210.433594 C 152.15625 210.269531 151.851562 210.054688 151.578125 209.789062 C 151.304688 209.527344 151.078125 209.230469 150.898438 208.898438 C 150.71875 208.5625 150.589844 208.210938 150.519531 207.839844 C 150.449219 207.464844 150.4375 207.09375 150.480469 206.714844 C 150.71875 206.050781 151.042969 205.429688 151.449219 204.851562 C 152.578125 203.574219 153.773438 202.367188 155.03125 201.222656 C 155.363281 200.902344 155.742188 200.65625 156.167969 200.480469 C 156.59375 200.304688 157.035156 200.214844 157.496094 200.207031 C 157.953125 200.203125 158.398438 200.28125 158.828125 200.445312 C 159.257812 200.609375 159.644531 200.847656 159.984375 201.15625 C 160.15625 201.3125 160.316406 201.484375 160.453125 201.675781 C 160.59375 201.863281 160.710938 202.0625 160.8125 202.277344 C 160.910156 202.488281 160.988281 202.707031 161.042969 202.9375 C 161.09375 203.164062 161.125 203.394531 161.132812 203.632812 C 161.140625 203.867188 161.125 204.097656 161.085938 204.328125 C 161.042969 204.5625 160.980469 204.785156 160.894531 205.003906 C 160.8125 205.222656 160.703125 205.429688 160.578125 205.625 C 160.449219 205.824219 160.300781 206.003906 160.136719 206.171875 C 158.945312 207.488281 157.6875 208.742188 156.363281 209.929688 Z M 164.558594 217.625 C 164.222656 217.972656 163.835938 218.238281 163.394531 218.429688 C 162.953125 218.617188 162.492188 218.714844 162.011719 218.722656 C 161.53125 218.726562 161.066406 218.636719 160.621094 218.457031 C 160.175781 218.277344 159.78125 218.015625 159.441406 217.679688 C 159.101562 217.339844 158.839844 216.945312 158.660156 216.5 C 158.476562 216.054688 158.390625 215.589844 158.398438 215.109375 C 158.40625 214.628906 158.507812 214.167969 158.699219 213.726562 C 158.894531 213.285156 159.167969 212.902344 159.519531 212.574219 C 160.628906 211.394531 161.765625 210.226562 162.957031 209.140625 C 163.203125 208.878906 163.484375 208.664062 163.800781 208.492188 C 164.117188 208.320312 164.453125 208.203125 164.804688 208.140625 C 165.160156 208.074219 165.511719 208.070312 165.867188 208.117188 C 166.222656 208.167969 166.5625 208.269531 166.886719 208.425781 C 168.308594 209.0625 168.917969 210.226562 169.058594 212.171875 C 168.75 212.910156 168.363281 213.605469 167.894531 214.257812 C 166.839844 215.4375 165.730469 216.5625 164.558594 217.625 Z M 175.9375 222.03125 C 174.800781 223.300781 173.59375 224.496094 172.316406 225.621094 C 171.707031 226.058594 171.046875 226.40625 170.339844 226.65625 C 169.972656 226.691406 169.609375 226.671875 169.253906 226.597656 C 168.894531 226.523438 168.554688 226.398438 168.230469 226.222656 C 167.910156 226.046875 167.617188 225.828125 167.363281 225.566406 C 167.105469 225.304688 166.890625 225.011719 166.71875 224.6875 C 166.546875 224.402344 166.421875 224.097656 166.347656 223.777344 C 166.269531 223.453125 166.246094 223.125 166.273438 222.792969 C 166.300781 222.460938 166.375 222.144531 166.503906 221.835938 C 166.628906 221.527344 166.800781 221.25 167.015625 220.996094 C 168.3125 219.5 169.707031 218.101562 171.191406 216.796875 C 171.535156 216.503906 171.921875 216.285156 172.355469 216.144531 C 172.785156 216.007812 173.226562 215.953125 173.675781 215.992188 C 174.128906 216.027344 174.554688 216.148438 174.957031 216.355469 C 175.359375 216.5625 175.707031 216.839844 176 217.183594 C 176.304688 217.515625 176.535156 217.894531 176.695312 218.316406 C 176.855469 218.734375 176.933594 219.171875 176.925781 219.621094 C 176.921875 220.070312 176.832031 220.503906 176.660156 220.921875 C 176.488281 221.339844 176.25 221.707031 175.9375 222.03125 Z M 213.59375 202.816406 C 213.25 203.152344 212.851562 203.414062 212.40625 203.59375 C 212.371094 203.609375 212.335938 203.621094 212.300781 203.632812 C 211.566406 203.851562 210.828125 203.855469 210.089844 203.636719 C 209.351562 203.421875 208.730469 203.023438 208.230469 202.441406 C 203.082031 197.320312 197.976562 192.191406 192.84375 187.070312 C 192.675781 186.902344 192.523438 186.722656 192.339844 186.566406 C 192.144531 186.363281 191.917969 186.207031 191.660156 186.097656 C 191.402344 185.984375 191.132812 185.929688 190.851562 185.925781 C 190.574219 185.921875 190.300781 185.976562 190.042969 186.082031 C 189.78125 186.1875 189.554688 186.34375 189.355469 186.539062 C 189.171875 186.742188 189.035156 186.972656 188.945312 187.230469 C 188.855469 187.488281 188.820312 187.75 188.835938 188.023438 C 188.855469 188.296875 188.925781 188.554688 189.046875 188.796875 C 189.164062 189.042969 189.328125 189.253906 189.535156 189.429688 C 190.933594 190.882812 192.394531 192.292969 193.816406 193.71875 C 197.785156 197.699219 201.753906 201.675781 205.722656 205.652344 C 205.996094 205.929688 206.222656 206.242188 206.394531 206.59375 C 206.570312 206.941406 206.683594 207.3125 206.734375 207.699219 C 206.789062 208.085938 206.777344 208.472656 206.703125 208.855469 C 206.628906 209.242188 206.496094 209.601562 206.304688 209.941406 C 206.117188 210.273438 205.886719 210.570312 205.605469 210.824219 C 205.324219 211.082031 205.007812 211.285156 204.660156 211.4375 C 204.3125 211.585938 203.949219 211.679688 203.570312 211.707031 C 203.191406 211.738281 202.820312 211.707031 202.449219 211.613281 C 201.683594 211.402344 201.019531 211.011719 200.460938 210.449219 C 195.277344 205.328125 190.128906 200.171875 184.972656 195.027344 C 184.757812 194.796875 184.527344 194.582031 184.285156 194.378906 C 184.097656 194.199219 183.878906 194.0625 183.636719 193.964844 C 183.390625 193.871094 183.136719 193.824219 182.875 193.828125 C 182.613281 193.832031 182.363281 193.886719 182.121094 193.988281 C 181.878906 194.089844 181.667969 194.234375 181.480469 194.417969 C 181.292969 194.601562 181.148438 194.8125 181.046875 195.054688 C 180.945312 195.296875 180.894531 195.546875 180.898438 195.8125 C 180.898438 196.074219 180.953125 196.324219 181.058594 196.566406 C 181.167969 196.804688 181.316406 197.015625 181.507812 197.191406 C 183.199219 198.96875 184.960938 200.691406 186.691406 202.425781 C 190.324219 206.066406 193.984375 209.695312 197.601562 213.351562 C 197.953125 213.664062 198.234375 214.03125 198.445312 214.453125 C 198.652344 214.875 198.777344 215.320312 198.816406 215.789062 C 198.851562 216.257812 198.800781 216.71875 198.660156 217.167969 C 198.519531 217.617188 198.300781 218.027344 198.003906 218.390625 C 197.84375 218.582031 197.667969 218.753906 197.472656 218.90625 C 197.277344 219.058594 197.066406 219.191406 196.84375 219.300781 C 196.621094 219.410156 196.390625 219.496094 196.148438 219.554688 C 195.90625 219.617188 195.664062 219.652344 195.414062 219.660156 C 195.167969 219.667969 194.921875 219.652344 194.675781 219.609375 C 194.433594 219.566406 194.195312 219.5 193.964844 219.40625 C 193.734375 219.316406 193.515625 219.199219 193.308594 219.058594 C 193.105469 218.921875 192.914062 218.761719 192.742188 218.585938 C 190.15625 216.070312 187.636719 213.492188 185.0625 210.964844 C 183.976562 209.878906 182.851562 208.816406 181.726562 207.753906 C 181.570312 207.609375 181.417969 207.480469 181.261719 207.363281 L 175.058594 201.144531 C 174.871094 200.972656 174.664062 200.839844 174.429688 200.75 C 174.195312 200.660156 173.953125 200.617188 173.699219 200.621094 C 173.449219 200.628906 173.207031 200.679688 172.976562 200.777344 C 172.746094 200.875 172.542969 201.015625 172.363281 201.191406 C 172.1875 201.371094 172.046875 201.574219 171.949219 201.804688 C 171.851562 202.039062 171.800781 202.28125 171.796875 202.53125 C 171.792969 202.785156 171.835938 203.027344 171.925781 203.261719 C 172.015625 203.496094 172.144531 203.707031 172.316406 203.890625 L 178.484375 210.085938 C 178.609375 210.269531 178.75 210.441406 178.910156 210.601562 C 182.453125 214.167969 186.019531 217.703125 189.574219 221.265625 C 189.78125 221.4375 189.96875 221.632812 190.132812 221.84375 C 190.296875 222.058594 190.433594 222.289062 190.546875 222.535156 C 190.660156 222.777344 190.742188 223.03125 190.796875 223.296875 C 190.851562 223.5625 190.878906 223.828125 190.875 224.097656 C 190.867188 224.367188 190.832031 224.632812 190.769531 224.894531 C 190.703125 225.15625 190.609375 225.40625 190.488281 225.648438 C 190.367188 225.890625 190.222656 226.113281 190.050781 226.320312 C 189.878906 226.527344 189.683594 226.714844 189.472656 226.878906 C 189.167969 227.125 188.835938 227.3125 188.46875 227.445312 C 188.105469 227.578125 187.726562 227.648438 187.339844 227.648438 C 186.949219 227.652344 186.570312 227.59375 186.203125 227.46875 C 185.835938 227.339844 185.496094 227.15625 185.191406 226.917969 C 183.679688 225.582031 182.285156 224.117188 180.875 222.679688 C 180.648438 222.394531 180.578125 222.074219 180.65625 221.71875 C 180.8125 221.160156 180.910156 220.589844 180.9375 220.007812 C 180.96875 219.425781 180.929688 218.847656 180.828125 218.277344 C 180.726562 217.703125 180.558594 217.148438 180.332031 216.613281 C 180.101562 216.078125 179.816406 215.574219 179.472656 215.105469 C 179.128906 214.636719 178.734375 214.210938 178.296875 213.832031 C 177.855469 213.453125 177.375 213.128906 176.863281 212.855469 C 176.347656 212.585938 175.808594 212.378906 175.246094 212.234375 C 174.683594 212.085938 174.113281 212.003906 173.53125 211.988281 C 173.390625 211.964844 173.253906 211.929688 173.117188 211.886719 C 172.714844 207.089844 170.09375 204.449219 165.207031 204.007812 C 164.777344 199.199219 162.195312 196.53125 157.4375 196.117188 C 157.207031 194.957031 156.882812 193.828125 156.464844 192.722656 C 156.34375 192.445312 156.207031 192.179688 156.054688 191.921875 C 155.902344 191.664062 155.734375 191.417969 155.550781 191.179688 C 155.367188 190.941406 155.171875 190.714844 154.960938 190.5 C 154.75 190.285156 154.527344 190.085938 154.292969 189.898438 C 154.058594 189.710938 153.816406 189.539062 153.558594 189.378906 C 153.304688 189.222656 153.042969 189.078125 152.769531 188.953125 C 152.5 188.828125 152.21875 188.714844 151.933594 188.625 C 151.648438 188.53125 151.359375 188.453125 151.066406 188.398438 C 150.773438 188.339844 150.476562 188.296875 150.175781 188.273438 C 149.878906 188.253906 149.578125 188.25 149.28125 188.261719 C 148.980469 188.273438 148.683594 188.304688 148.386719 188.355469 C 148.089844 188.402344 147.800781 188.472656 147.511719 188.554688 C 147.226562 188.640625 146.941406 188.738281 146.667969 188.859375 C 146.390625 188.976562 146.125 189.109375 145.863281 189.261719 C 145.605469 189.410156 145.355469 189.574219 145.117188 189.753906 C 144.875 189.9375 144.648438 190.128906 144.429688 190.335938 C 142.738281 191.828125 141.09375 193.382812 139.296875 195.015625 C 138.003906 193.648438 136.875 192.160156 135.90625 190.546875 C 134.941406 188.929688 134.160156 187.230469 133.570312 185.441406 C 132.976562 183.65625 132.585938 181.824219 132.398438 179.949219 C 132.207031 178.078125 132.222656 176.203125 132.445312 174.335938 C 133.738281 162.710938 140.140625 154.816406 151.167969 151.0625 C 152.261719 150.691406 153.371094 150.398438 154.503906 150.179688 C 155.636719 149.957031 156.78125 149.8125 157.929688 149.746094 C 159.082031 149.675781 160.234375 149.683594 161.382812 149.765625 C 162.535156 149.851562 163.675781 150.011719 164.804688 150.246094 C 165.933594 150.480469 167.042969 150.789062 168.132812 151.167969 C 169.222656 151.550781 170.28125 152.003906 171.308594 152.523438 C 172.339844 153.046875 173.328125 153.632812 174.28125 154.285156 C 175.234375 154.9375 176.136719 155.652344 176.996094 156.425781 C 173.855469 159.574219 170.765625 162.644531 167.699219 165.730469 C 166.472656 166.960938 165.207031 168.164062 164.09375 169.5 C 163.757812 169.910156 163.460938 170.347656 163.203125 170.8125 C 162.949219 171.277344 162.738281 171.761719 162.570312 172.265625 C 162.40625 172.769531 162.289062 173.285156 162.21875 173.8125 C 162.148438 174.339844 162.128906 174.867188 162.15625 175.398438 C 162.183594 175.929688 162.261719 176.453125 162.386719 176.96875 C 162.515625 177.484375 162.6875 177.984375 162.90625 178.46875 C 163.125 178.953125 163.386719 179.414062 163.691406 179.847656 C 163.992188 180.28125 164.335938 180.6875 164.714844 181.058594 C 165.09375 181.429688 165.503906 181.765625 165.941406 182.058594 C 166.382812 182.355469 166.847656 182.609375 167.332031 182.820312 C 167.820312 183.03125 168.320312 183.195312 168.839844 183.316406 C 169.355469 183.433594 169.878906 183.503906 170.410156 183.523438 C 170.941406 183.546875 171.46875 183.519531 171.992188 183.441406 C 172.515625 183.367188 173.03125 183.242188 173.53125 183.070312 C 174.035156 182.902344 174.515625 182.683594 174.980469 182.425781 C 175.441406 182.164062 175.878906 181.863281 176.285156 181.523438 C 177.695312 180.28125 183.382812 174.707031 187.039062 171.132812 C 194.449219 178.519531 207.542969 191.617188 213.347656 197.449219 C 213.546875 197.605469 213.730469 197.785156 213.890625 197.980469 C 214.050781 198.175781 214.191406 198.386719 214.308594 198.613281 C 214.421875 198.84375 214.515625 199.078125 214.578125 199.324219 C 214.644531 199.570312 214.683594 199.820312 214.695312 200.074219 C 214.707031 200.332031 214.691406 200.582031 214.648438 200.835938 C 214.605469 201.085938 214.539062 201.328125 214.441406 201.566406 C 214.347656 201.800781 214.226562 202.027344 214.085938 202.238281 C 213.941406 202.445312 213.777344 202.640625 213.59375 202.816406 Z M 227.660156 178.675781 C 227.238281 183.25 225.8125 187.480469 223.378906 191.375 C 222.667969 192.453125 221.902344 193.488281 221.078125 194.484375 C 220.265625 195.480469 219.4375 196.425781 218.675781 197.386719 C 217.5625 196.21875 216.503906 195.09375 215.457031 193.992188 C 215.457031 193.992188 213.957031 192.4375 212.339844 190.765625 C 210 188.367188 200.304688 178.648438 187.039062 165.484375 C 184.507812 168.039062 175.714844 176.617188 173.984375 178.25 C 173.597656 178.625 173.15625 178.925781 172.664062 179.148438 C 172.171875 179.367188 171.65625 179.496094 171.117188 179.535156 C 170.578125 179.570312 170.050781 179.511719 169.53125 179.359375 C 169.011719 179.207031 168.535156 178.972656 168.101562 178.648438 C 167.820312 178.453125 167.566406 178.222656 167.335938 177.96875 C 167.105469 177.714844 166.90625 177.4375 166.738281 177.136719 C 166.570312 176.835938 166.4375 176.519531 166.339844 176.191406 C 166.242188 175.859375 166.183594 175.523438 166.160156 175.179688 C 166.136719 174.839844 166.152344 174.496094 166.203125 174.15625 C 166.257812 173.816406 166.347656 173.488281 166.472656 173.167969 C 166.601562 172.847656 166.761719 172.546875 166.953125 172.261719 C 167.148438 171.976562 167.371094 171.71875 167.625 171.484375 C 171.359375 167.714844 175.148438 163.996094 178.882812 160.238281 C 181.351562 157.46875 184.179688 155.136719 187.363281 153.238281 C 191.382812 151.035156 195.683594 149.875 200.265625 149.765625 C 204.75 149.886719 209.027344 150.898438 213.089844 152.808594 C 214.582031 153.480469 215.972656 154.320312 217.265625 155.324219 C 218.261719 156.109375 219.1875 156.96875 220.046875 157.902344 C 220.917969 158.800781 221.703125 159.769531 222.410156 160.804688 C 223.207031 161.976562 223.921875 163.195312 224.558594 164.457031 C 225.722656 166.636719 226.570312 168.933594 227.097656 171.351562 C 227.625 173.765625 227.8125 176.207031 227.660156 178.675781 Z M 227.660156 178.675781 " fill-opacity="1" fill-rule="nonzero"/></g><path fill="#72d6fe" d="M 176 217.183594 C 176.304688 217.515625 176.535156 217.894531 176.695312 218.316406 C 176.855469 218.734375 176.933594 219.171875 176.925781 219.621094 C 176.921875 220.070312 176.832031 220.503906 176.660156 220.921875 C 176.488281 221.339844 176.25 221.707031 175.9375 222.03125 C 174.800781 223.300781 173.59375 224.496094 172.316406 225.621094 C 171.707031 226.058594 171.046875 226.40625 170.339844 226.65625 C 169.972656 226.691406 169.609375 226.671875 169.253906 226.597656 C 168.894531 226.523438 168.554688 226.398438 168.230469 226.222656 C 167.910156 226.046875 167.617188 225.828125 167.363281 225.566406 C 167.105469 225.304688 166.890625 225.011719 166.71875 224.6875 C 166.546875 224.402344 166.421875 224.097656 166.347656 223.777344 C 166.269531 223.453125 166.246094 223.125 166.273438 222.792969 C 166.300781 222.460938 166.375 222.144531 166.503906 221.835938 C 166.628906 221.527344 166.800781 221.25 167.015625 220.996094 C 168.3125 219.5 169.707031 218.101562 171.191406 216.796875 C 171.535156 216.503906 171.921875 216.285156 172.355469 216.144531 C 172.785156 216.007812 173.226562 215.953125 173.675781 215.992188 C 174.128906 216.027344 174.554688 216.148438 174.957031 216.355469 C 175.359375 216.5625 175.707031 216.839844 176 217.183594 Z M 159.984375 201.15625 C 159.644531 200.847656 159.257812 200.609375 158.828125 200.445312 C 158.398438 200.28125 157.953125 200.203125 157.496094 200.207031 C 157.035156 200.214844 156.59375 200.304688 156.167969 200.480469 C 155.742188 200.65625 155.363281 200.902344 155.03125 201.222656 C 153.773438 202.367188 152.578125 203.574219 151.449219 204.851562 C 151.042969 205.429688 150.71875 206.050781 150.480469 206.714844 C 150.4375 207.09375 150.449219 207.464844 150.519531 207.839844 C 150.589844 208.210938 150.71875 208.5625 150.898438 208.898438 C 151.078125 209.230469 151.304688 209.527344 151.578125 209.789062 C 151.851562 210.054688 152.15625 210.269531 152.496094 210.433594 C 152.804688 210.601562 153.132812 210.71875 153.476562 210.78125 C 153.820312 210.84375 154.164062 210.855469 154.511719 210.808594 C 154.859375 210.765625 155.191406 210.667969 155.507812 210.515625 C 155.824219 210.367188 156.109375 210.171875 156.363281 209.929688 C 157.6875 208.742188 158.945312 207.488281 160.136719 206.171875 C 160.300781 206.003906 160.449219 205.824219 160.578125 205.625 C 160.703125 205.429688 160.8125 205.222656 160.894531 205.003906 C 160.980469 204.785156 161.042969 204.5625 161.085938 204.328125 C 161.125 204.097656 161.140625 203.867188 161.132812 203.632812 C 161.125 203.394531 161.09375 203.164062 161.042969 202.9375 C 160.988281 202.707031 160.910156 202.488281 160.8125 202.277344 C 160.710938 202.0625 160.59375 201.863281 160.453125 201.675781 C 160.316406 201.484375 160.15625 201.3125 159.984375 201.15625 Z M 169.058594 212.171875 C 168.917969 210.226562 168.308594 209.0625 166.886719 208.425781 C 166.5625 208.269531 166.222656 208.167969 165.867188 208.117188 C 165.511719 208.070312 165.160156 208.074219 164.804688 208.140625 C 164.453125 208.203125 164.117188 208.320312 163.800781 208.492188 C 163.484375 208.664062 163.203125 208.878906 162.957031 209.140625 C 161.765625 210.226562 160.628906 211.394531 159.519531 212.574219 C 159.167969 212.902344 158.894531 213.285156 158.699219 213.726562 C 158.507812 214.167969 158.40625 214.628906 158.398438 215.109375 C 158.390625 215.589844 158.476562 216.054688 158.660156 216.5 C 158.839844 216.945312 159.101562 217.339844 159.441406 217.679688 C 159.78125 218.015625 160.175781 218.277344 160.621094 218.457031 C 161.066406 218.636719 161.53125 218.726562 162.011719 218.722656 C 162.492188 218.714844 162.953125 218.617188 163.394531 218.429688 C 163.835938 218.238281 164.222656 217.972656 164.558594 217.625 C 165.730469 216.5625 166.839844 215.4375 167.894531 214.257812 C 168.363281 213.605469 168.75 212.910156 169.058594 212.171875 Z M 152.859375 194.378906 C 152.546875 193.710938 152.078125 193.175781 151.464844 192.769531 C 150.847656 192.363281 150.171875 192.148438 149.433594 192.125 C 148.667969 192.394531 147.949219 192.75 147.273438 193.199219 C 145.945312 194.386719 144.6875 195.644531 143.5 196.972656 C 143.179688 197.304688 142.933594 197.6875 142.769531 198.117188 C 142.601562 198.546875 142.523438 198.996094 142.539062 199.457031 C 142.550781 199.917969 142.652344 200.359375 142.84375 200.78125 C 143.035156 201.203125 143.300781 201.570312 143.640625 201.882812 C 143.960938 202.203125 144.324219 202.453125 144.738281 202.632812 C 145.152344 202.8125 145.585938 202.90625 146.035156 202.917969 C 146.488281 202.925781 146.921875 202.851562 147.34375 202.695312 C 147.765625 202.535156 148.144531 202.304688 148.476562 202 C 149.820312 200.78125 151.101562 199.472656 152.328125 198.125 C 152.566406 197.882812 152.761719 197.609375 152.910156 197.300781 C 153.0625 196.996094 153.160156 196.675781 153.207031 196.339844 C 153.253906 196.003906 153.25 195.667969 153.191406 195.332031 C 153.128906 194.996094 153.019531 194.679688 152.859375 194.378906 Z M 224.558594 164.460938 C 223.921875 163.195312 223.207031 161.980469 222.410156 160.808594 C 221.703125 159.773438 220.917969 158.804688 220.046875 157.90625 C 219.1875 156.972656 218.261719 156.113281 217.265625 155.328125 C 215.972656 154.320312 214.582031 153.484375 213.089844 152.8125 C 209.027344 150.902344 204.753906 149.886719 200.265625 149.765625 C 195.683594 149.875 191.382812 151.03125 187.363281 153.238281 C 184.179688 155.132812 181.351562 157.464844 178.882812 160.234375 C 175.148438 163.992188 171.359375 167.710938 167.625 171.480469 C 167.371094 171.714844 167.148438 171.976562 166.953125 172.257812 C 166.761719 172.542969 166.601562 172.84375 166.472656 173.164062 C 166.347656 173.484375 166.257812 173.8125 166.203125 174.152344 C 166.152344 174.492188 166.136719 174.835938 166.160156 175.179688 C 166.183594 175.523438 166.242188 175.859375 166.339844 176.1875 C 166.4375 176.519531 166.570312 176.832031 166.738281 177.132812 C 166.90625 177.433594 167.105469 177.710938 167.335938 177.964844 C 167.566406 178.222656 167.820312 178.449219 168.101562 178.648438 C 168.535156 178.96875 169.011719 179.207031 169.53125 179.359375 C 170.050781 179.511719 170.578125 179.566406 171.117188 179.53125 C 171.65625 179.496094 172.171875 179.367188 172.664062 179.144531 C 173.15625 178.921875 173.597656 178.625 173.984375 178.246094 C 175.714844 176.613281 184.507812 168.035156 187.039062 165.480469 C 200.304688 178.648438 210 188.367188 212.339844 190.761719 C 213.957031 192.433594 215.457031 193.988281 215.457031 193.988281 C 216.503906 195.089844 217.5625 196.21875 218.675781 197.382812 C 219.4375 196.425781 220.265625 195.480469 221.078125 194.480469 C 221.902344 193.484375 222.667969 192.449219 223.378906 191.371094 C 225.8125 187.480469 227.238281 183.246094 227.660156 178.671875 C 227.8125 176.207031 227.625 173.765625 227.097656 171.351562 C 226.570312 168.933594 225.722656 166.640625 224.558594 164.460938 Z M 224.558594 164.460938 " fill-opacity="1" fill-rule="nonzero"/><path fill="#5944e7" d="M 213.59375 202.816406 C 213.25 203.152344 212.851562 203.414062 212.40625 203.59375 C 212.371094 203.609375 212.335938 203.621094 212.300781 203.632812 C 211.566406 203.851562 210.828125 203.855469 210.089844 203.636719 C 209.351562 203.421875 208.730469 203.023438 208.230469 202.441406 C 203.082031 197.320312 197.976562 192.191406 192.84375 187.070312 C 192.675781 186.902344 192.523438 186.722656 192.339844 186.566406 C 192.144531 186.363281 191.917969 186.207031 191.660156 186.097656 C 191.402344 185.984375 191.132812 185.929688 190.851562 185.925781 C 190.574219 185.921875 190.300781 185.976562 190.042969 186.082031 C 189.78125 186.1875 189.554688 186.34375 189.355469 186.539062 C 189.171875 186.742188 189.035156 186.972656 188.945312 187.230469 C 188.855469 187.488281 188.820312 187.75 188.835938 188.023438 C 188.855469 188.296875 188.925781 188.554688 189.046875 188.796875 C 189.164062 189.042969 189.328125 189.253906 189.535156 189.429688 C 190.933594 190.882812 192.394531 192.292969 193.816406 193.71875 C 197.785156 197.699219 201.753906 201.675781 205.722656 205.652344 C 205.996094 205.929688 206.222656 206.242188 206.394531 206.59375 C 206.570312 206.941406 206.683594 207.3125 206.734375 207.699219 C 206.789062 208.085938 206.777344 208.472656 206.703125 208.855469 C 206.628906 209.242188 206.496094 209.601562 206.304688 209.941406 C 206.117188 210.273438 205.886719 210.570312 205.605469 210.824219 C 205.324219 211.082031 205.007812 211.285156 204.660156 211.4375 C 204.3125 211.585938 203.949219 211.679688 203.570312 211.707031 C 203.191406 211.738281 202.820312 211.707031 202.449219 211.613281 C 201.683594 211.402344 201.019531 211.011719 200.460938 210.449219 C 195.277344 205.328125 190.128906 200.171875 184.972656 195.027344 C 184.757812 194.796875 184.527344 194.582031 184.285156 194.378906 C 184.097656 194.199219 183.878906 194.0625 183.636719 193.964844 C 183.390625 193.871094 183.136719 193.824219 182.875 193.828125 C 182.613281 193.832031 182.363281 193.886719 182.121094 193.988281 C 181.878906 194.089844 181.667969 194.234375 181.480469 194.417969 C 181.292969 194.601562 181.148438 194.8125 181.046875 195.054688 C 180.945312 195.296875 180.894531 195.546875 180.898438 195.8125 C 180.898438 196.074219 180.953125 196.324219 181.058594 196.566406 C 181.167969 196.804688 181.316406 197.015625 181.507812 197.191406 C 183.199219 198.96875 184.960938 200.691406 186.691406 202.425781 C 190.324219 206.066406 193.984375 209.695312 197.601562 213.351562 C 197.953125 213.664062 198.234375 214.03125 198.445312 214.453125 C 198.652344 214.875 198.777344 215.320312 198.816406 215.789062 C 198.851562 216.257812 198.800781 216.71875 198.660156 217.167969 C 198.519531 217.617188 198.300781 218.027344 198.003906 218.390625 C 197.84375 218.582031 197.667969 218.753906 197.472656 218.90625 C 197.277344 219.058594 197.066406 219.191406 196.84375 219.300781 C 196.621094 219.410156 196.390625 219.496094 196.148438 219.554688 C 195.90625 219.617188 195.664062 219.652344 195.414062 219.660156 C 195.167969 219.667969 194.921875 219.652344 194.675781 219.609375 C 194.433594 219.566406 194.195312 219.5 193.964844 219.40625 C 193.734375 219.316406 193.515625 219.199219 193.308594 219.058594 C 193.105469 218.921875 192.914062 218.761719 192.742188 218.585938 C 190.15625 216.070312 187.636719 213.492188 185.0625 210.964844 C 183.976562 209.878906 182.851562 208.816406 181.726562 207.753906 C 181.570312 207.609375 181.417969 207.480469 181.261719 207.363281 L 175.058594 201.144531 C 174.871094 200.972656 174.664062 200.839844 174.429688 200.75 C 174.195312 200.660156 173.953125 200.617188 173.699219 200.621094 C 173.449219 200.628906 173.207031 200.679688 172.976562 200.777344 C 172.746094 200.875 172.542969 201.015625 172.363281 201.191406 C 172.1875 201.371094 172.046875 201.574219 171.949219 201.804688 C 171.851562 202.039062 171.800781 202.28125 171.796875 202.53125 C 171.792969 202.785156 171.835938 203.027344 171.925781 203.261719 C 172.015625 203.496094 172.144531 203.707031 172.316406 203.890625 L 178.484375 210.085938 C 178.609375 210.269531 178.75 210.441406 178.910156 210.601562 C 182.453125 214.167969 186.019531 217.703125 189.574219 221.265625 C 189.78125 221.4375 189.96875 221.632812 190.132812 221.84375 C 190.296875 222.058594 190.433594 222.289062 190.546875 222.535156 C 190.660156 222.777344 190.742188 223.03125 190.796875 223.296875 C 190.851562 223.5625 190.878906 223.828125 190.875 224.097656 C 190.867188 224.367188 190.832031 224.632812 190.769531 224.894531 C 190.703125 225.15625 190.609375 225.40625 190.488281 225.648438 C 190.367188 225.890625 190.222656 226.113281 190.050781 226.320312 C 189.878906 226.527344 189.683594 226.714844 189.472656 226.878906 C 189.167969 227.125 188.835938 227.3125 188.46875 227.445312 C 188.105469 227.578125 187.726562 227.648438 187.339844 227.648438 C 186.949219 227.652344 186.570312 227.59375 186.203125 227.46875 C 185.835938 227.339844 185.496094 227.15625 185.191406 226.917969 C 183.679688 225.582031 182.285156 224.117188 180.875 222.679688 C 180.648438 222.394531 180.578125 222.074219 180.65625 221.71875 C 180.8125 221.160156 180.910156 220.589844 180.9375 220.007812 C 180.96875 219.425781 180.929688 218.847656 180.828125 218.277344 C 180.726562 217.703125 180.558594 217.148438 180.332031 216.613281 C 180.101562 216.078125 179.816406 215.574219 179.472656 215.105469 C 179.128906 214.636719 178.734375 214.210938 178.296875 213.832031 C 177.855469 213.453125 177.375 213.128906 176.863281 212.855469 C 176.347656 212.585938 175.808594 212.378906 175.246094 212.234375 C 174.683594 212.085938 174.113281 212.003906 173.53125 211.988281 C 173.390625 211.964844 173.253906 211.929688 173.117188 211.886719 C 172.714844 207.089844 170.09375 204.449219 165.207031 204.007812 C 164.777344 199.199219 162.195312 196.53125 157.4375 196.117188 C 157.207031 194.957031 156.882812 193.828125 156.464844 192.722656 C 156.34375 192.445312 156.207031 192.179688 156.054688 191.921875 C 155.902344 191.664062 155.734375 191.417969 155.550781 191.179688 C 155.367188 190.941406 155.171875 190.714844 154.960938 190.5 C 154.75 190.285156 154.527344 190.085938 154.292969 189.898438 C 154.058594 189.710938 153.816406 189.539062 153.558594 189.378906 C 153.304688 189.222656 153.042969 189.078125 152.769531 188.953125 C 152.5 188.828125 152.21875 188.714844 151.933594 188.625 C 151.648438 188.53125 151.359375 188.453125 151.066406 188.398438 C 150.773438 188.339844 150.476562 188.296875 150.175781 188.273438 C 149.878906 188.253906 149.578125 188.25 149.28125 188.261719 C 148.980469 188.273438 148.683594 188.304688 148.386719 188.355469 C 148.089844 188.402344 147.800781 188.472656 147.511719 188.554688 C 147.226562 188.640625 146.941406 188.738281 146.667969 188.859375 C 146.390625 188.976562 146.125 189.109375 145.863281 189.261719 C 145.605469 189.410156 145.355469 189.574219 145.117188 189.753906 C 144.875 189.9375 144.648438 190.128906 144.429688 190.335938 C 142.738281 191.828125 141.09375 193.382812 139.296875 195.015625 C 138.003906 193.648438 136.875 192.160156 135.90625 190.546875 C 134.941406 188.929688 134.160156 187.230469 133.570312 185.441406 C 132.976562 183.65625 132.585938 181.824219 132.398438 179.949219 C 132.207031 178.078125 132.222656 176.203125 132.445312 174.335938 C 133.738281 162.710938 140.140625 154.816406 151.167969 151.0625 C 152.261719 150.691406 153.371094 150.398438 154.503906 150.179688 C 155.636719 149.957031 156.78125 149.8125 157.929688 149.746094 C 159.082031 149.675781 160.234375 149.683594 161.382812 149.765625 C 162.535156 149.851562 163.675781 150.011719 164.804688 150.246094 C 165.933594 150.480469 167.042969 150.789062 168.132812 151.167969 C 169.222656 151.550781 170.28125 152.003906 171.308594 152.523438 C 172.339844 153.046875 173.328125 153.632812 174.28125 154.285156 C 175.234375 154.9375 176.136719 155.652344 176.996094 156.425781 C 173.855469 159.574219 170.765625 162.644531 167.699219 165.730469 C 166.472656 166.960938 165.207031 168.164062 164.09375 169.5 C 163.757812 169.910156 163.460938 170.347656 163.203125 170.8125 C 162.949219 171.277344 162.738281 171.761719 162.570312 172.265625 C 162.40625 172.769531 162.289062 173.285156 162.21875 173.8125 C 162.148438 174.339844 162.128906 174.867188 162.15625 175.398438 C 162.183594 175.929688 162.261719 176.453125 162.386719 176.96875 C 162.515625 177.484375 162.6875 177.984375 162.90625 178.46875 C 163.125 178.953125 163.386719 179.414062 163.691406 179.847656 C 163.992188 180.28125 164.335938 180.6875 164.714844 181.058594 C 165.09375 181.429688 165.503906 181.765625 165.941406 182.058594 C 166.382812 182.355469 166.847656 182.609375 167.332031 182.820312 C 167.820312 183.03125 168.320312 183.195312 168.839844 183.316406 C 169.355469 183.433594 169.878906 183.503906 170.410156 183.523438 C 170.941406 183.546875 171.46875 183.519531 171.992188 183.441406 C 172.515625 183.367188 173.03125 183.242188 173.53125 183.070312 C 174.035156 182.902344 174.515625 182.683594 174.980469 182.425781 C 175.441406 182.164062 175.878906 181.863281 176.285156 181.523438 C 177.695312 180.28125 183.382812 174.707031 187.039062 171.132812 C 194.449219 178.519531 207.542969 191.617188 213.347656 197.449219 C 213.546875 197.605469 213.730469 197.785156 213.890625 197.980469 C 214.050781 198.175781 214.191406 198.386719 214.308594 198.613281 C 214.421875 198.84375 214.515625 199.078125 214.578125 199.324219 C 214.644531 199.570312 214.683594 199.820312 214.695312 200.074219 C 214.707031 200.332031 214.691406 200.582031 214.648438 200.835938 C 214.605469 201.085938 214.539062 201.328125 214.441406 201.566406 C 214.347656 201.800781 214.226562 202.027344 214.085938 202.238281 C 213.941406 202.445312 213.777344 202.640625 213.59375 202.816406 Z M 213.59375 202.816406 " fill-opacity="1" fill-rule="nonzero"/></svg>